<svg width="289" height="50" viewBox="0 0 289 50" fill="none" xmlns="http://www.w3.org/2000/svg">
<path d="M62.6449 38H55.8438L64.6776 11.8182H73.1023L81.9361 38H75.1349L68.9858 18.4148H68.7812L62.6449 38ZM61.7372 27.696H75.9531V32.5028H61.7372V27.696ZM91.0064 11.8182V38H84.755V11.8182H91.0064ZM94.9854 38V11.8182H101.237V21.7259H101.365C101.62 21.1293 101.983 20.554 102.451 20C102.929 19.446 103.534 18.9943 104.267 18.6449C105.008 18.2869 105.895 18.108 106.926 18.108C108.289 18.108 109.564 18.4659 110.748 19.1818C111.941 19.8977 112.904 21.0014 113.637 22.4929C114.37 23.9844 114.737 25.8849 114.737 28.1946C114.737 30.419 114.383 32.2812 113.676 33.7812C112.977 35.2812 112.031 36.4062 110.838 37.1562C109.653 37.9062 108.336 38.2812 106.887 38.2812C105.899 38.2812 105.042 38.1193 104.318 37.7955C103.593 37.4716 102.984 37.0455 102.49 36.517C102.004 35.9886 101.629 35.4219 101.365 34.8168H101.173V38H94.9854ZM101.109 28.1818C101.109 29.2386 101.25 30.1591 101.531 30.9432C101.821 31.7273 102.234 32.3366 102.771 32.7713C103.316 33.1974 103.968 33.4105 104.727 33.4105C105.494 33.4105 106.146 33.1974 106.683 32.7713C107.22 32.3366 107.625 31.7273 107.897 30.9432C108.179 30.1591 108.319 29.2386 108.319 28.1818C108.319 27.125 108.179 26.2088 107.897 25.4332C107.625 24.6577 107.22 24.0568 106.683 23.6307C106.154 23.2045 105.502 22.9915 104.727 22.9915C103.96 22.9915 103.308 23.2003 102.771 23.6179C102.234 24.0355 101.821 24.6321 101.531 25.4077C101.25 26.1832 101.109 27.108 101.109 28.1818ZM130.682 29.5241V18.3636H136.92V38H130.963V34.3438H130.759C130.324 35.5455 129.582 36.5 128.534 37.2074C127.494 37.9062 126.237 38.2557 124.763 38.2557C123.425 38.2557 122.249 37.9489 121.234 37.3352C120.22 36.7216 119.432 35.8651 118.869 34.7656C118.307 33.6577 118.021 32.3622 118.013 30.8793V18.3636H124.264V29.652C124.273 30.7173 124.554 31.5568 125.108 32.1705C125.662 32.7841 126.416 33.0909 127.371 33.0909C127.993 33.0909 128.551 32.9545 129.045 32.6818C129.548 32.4006 129.945 31.9957 130.234 31.4673C130.533 30.9304 130.682 30.2827 130.682 29.5241ZM140.9 38V18.3636H146.844V21.9688H147.061C147.471 20.7756 148.161 19.8338 149.132 19.1435C150.104 18.4531 151.263 18.108 152.61 18.108C153.973 18.108 155.141 18.4574 156.113 19.1562C157.084 19.8551 157.702 20.7926 157.966 21.9688H158.171C158.537 20.8011 159.253 19.8679 160.319 19.169C161.384 18.4616 162.641 18.108 164.09 18.108C165.948 18.108 167.456 18.7045 168.615 19.8977C169.775 21.0824 170.354 22.7102 170.354 24.7812V38H164.103V26.2131C164.103 25.233 163.851 24.4872 163.348 23.9759C162.846 23.456 162.194 23.196 161.392 23.196C160.532 23.196 159.854 23.4773 159.36 24.0398C158.874 24.5937 158.631 25.3395 158.631 26.277V38H152.623V26.1491C152.623 25.2372 152.375 24.517 151.881 23.9886C151.387 23.4602 150.735 23.196 149.925 23.196C149.38 23.196 148.898 23.3281 148.48 23.5923C148.063 23.848 147.735 24.2145 147.496 24.6918C147.266 25.169 147.151 25.7315 147.151 26.3793V38H140.9ZM205.728 21.304H199.336C199.25 20.6477 199.076 20.0554 198.811 19.527C198.547 18.9986 198.198 18.5469 197.763 18.1719C197.328 17.7969 196.813 17.5114 196.216 17.3153C195.628 17.1108 194.976 17.0085 194.26 17.0085C192.99 17.0085 191.895 17.3196 190.975 17.9418C190.063 18.5639 189.36 19.4631 188.865 20.6392C188.38 21.8153 188.137 23.2386 188.137 24.9091C188.137 26.6477 188.384 28.1051 188.878 29.2812C189.381 30.4489 190.084 31.331 190.988 31.9276C191.9 32.5156 192.978 32.8097 194.222 32.8097C194.921 32.8097 195.556 32.7202 196.127 32.5412C196.706 32.3622 197.213 32.1023 197.648 31.7614C198.091 31.4119 198.453 30.9901 198.735 30.4957C199.025 29.9929 199.225 29.4261 199.336 28.7955L205.728 28.8338C205.617 29.9929 205.28 31.1349 204.718 32.2599C204.164 33.3849 203.401 34.4119 202.429 35.3409C201.458 36.2614 200.273 36.9943 198.875 37.5398C197.486 38.0852 195.892 38.358 194.094 38.358C191.725 38.358 189.603 37.8381 187.728 36.7983C185.861 35.75 184.387 34.2244 183.304 32.2216C182.222 30.2187 181.681 27.7812 181.681 24.9091C181.681 22.0284 182.23 19.5866 183.33 17.5838C184.429 15.581 185.917 14.0597 187.792 13.0199C189.667 11.9801 191.767 11.4602 194.094 11.4602C195.679 11.4602 197.145 11.6818 198.492 12.125C199.838 12.5597 201.023 13.1989 202.046 14.0426C203.069 14.8778 203.9 15.9048 204.539 17.1236C205.178 18.3423 205.574 19.7358 205.728 21.304ZM215.6 11.8182V38H209.349V11.8182H215.6ZM228.745 38.3707C226.683 38.3707 224.91 37.9489 223.427 37.1051C221.953 36.2528 220.815 35.0682 220.014 33.5511C219.221 32.0256 218.825 30.2571 218.825 28.2457C218.825 26.2259 219.221 24.4574 220.014 22.9403C220.815 21.4148 221.953 20.2301 223.427 19.3864C224.91 18.5341 226.683 18.108 228.745 18.108C230.808 18.108 232.576 18.5341 234.051 19.3864C235.534 20.2301 236.672 21.4148 237.464 22.9403C238.265 24.4574 238.666 26.2259 238.666 28.2457C238.666 30.2571 238.265 32.0256 237.464 33.5511C236.672 35.0682 235.534 36.2528 234.051 37.1051C232.576 37.9489 230.808 38.3707 228.745 38.3707ZM228.784 33.6534C229.534 33.6534 230.169 33.4233 230.689 32.9631C231.208 32.5028 231.605 31.8636 231.877 31.0455C232.159 30.2273 232.299 29.2812 232.299 28.2074C232.299 27.1165 232.159 26.1619 231.877 25.3438C231.605 24.5256 231.208 23.8864 230.689 23.4261C230.169 22.9659 229.534 22.7358 228.784 22.7358C228.008 22.7358 227.352 22.9659 226.815 23.4261C226.287 23.8864 225.882 24.5256 225.6 25.3438C225.328 26.1619 225.191 27.1165 225.191 28.2074C225.191 29.2812 225.328 30.2273 225.6 31.0455C225.882 31.8636 226.287 32.5028 226.815 32.9631C227.352 33.4233 228.008 33.6534 228.784 33.6534ZM248.12 26.8011V38H241.868V18.3636H247.813V21.9688H248.03C248.465 20.767 249.206 19.8253 250.255 19.1435C251.303 18.4531 252.551 18.108 254 18.108C255.381 18.108 256.578 18.419 257.593 19.0412C258.615 19.6548 259.408 20.5156 259.971 21.6236C260.542 22.723 260.823 24.0099 260.814 25.4844V38H254.563V26.7116C254.571 25.6207 254.294 24.7685 253.732 24.1548C253.178 23.5412 252.407 23.2344 251.418 23.2344C250.762 23.2344 250.182 23.3793 249.679 23.669C249.185 23.9503 248.801 24.3551 248.529 24.8835C248.265 25.4119 248.128 26.0511 248.12 26.8011ZM273.864 38.3707C271.81 38.3707 270.037 37.9659 268.545 37.1562C267.063 36.3381 265.92 35.1747 265.119 33.6662C264.327 32.1491 263.93 30.3466 263.93 28.2585C263.93 26.2301 264.331 24.4574 265.132 22.9403C265.933 21.4148 267.062 20.2301 268.52 19.3864C269.977 18.5341 271.695 18.108 273.672 18.108C275.07 18.108 276.348 18.3253 277.507 18.7599C278.666 19.1946 279.668 19.8381 280.511 20.6903C281.355 21.5426 282.011 22.5952 282.48 23.848C282.949 25.0923 283.183 26.5199 283.183 28.1307V29.6903H266.116V26.0597H277.366C277.358 25.3949 277.2 24.8026 276.893 24.2827C276.587 23.7628 276.165 23.358 275.628 23.0682C275.099 22.7699 274.49 22.6207 273.8 22.6207C273.101 22.6207 272.474 22.7784 271.92 23.0938C271.366 23.4006 270.928 23.8224 270.604 24.3594C270.28 24.8878 270.109 25.4886 270.092 26.1619V29.8565C270.092 30.6577 270.25 31.3608 270.565 31.9659C270.881 32.5625 271.328 33.027 271.908 33.3594C272.487 33.6918 273.178 33.858 273.979 33.858C274.533 33.858 275.036 33.7812 275.487 33.6278C275.939 33.4744 276.327 33.2486 276.651 32.9503C276.974 32.652 277.217 32.2855 277.379 31.8509L283.119 32.017C282.881 33.304 282.357 34.4247 281.547 35.3793C280.746 36.3253 279.693 37.0625 278.389 37.5909C277.085 38.1108 275.577 38.3707 273.864 38.3707Z" fill="white"/>
<path d="M23.3333 17.4479L30.625 4.94791C33.7847 5.78124 36.5889 7.30902 39.0375 9.53124C41.4861 11.7535 43.2653 14.3924 44.375 17.4479H23.3333ZM17.5521 22.6562L10.4167 10.1562C12.2917 8.31596 14.4708 6.85763 16.9542 5.78124C19.4375 4.70485 22.1195 4.16666 25 4.16666C25.4514 4.16666 25.9722 4.19305 26.5625 4.24582C27.1528 4.2986 27.691 4.35902 28.1771 4.42707L17.5521 22.6562ZM4.84376 30.2083C4.63543 29.375 4.47015 28.5243 4.34793 27.6562C4.22571 26.7882 4.16529 25.9028 4.16668 25C4.16668 22.5347 4.56599 20.2083 5.3646 18.0208C6.16321 15.8333 7.29168 13.8368 8.75001 12.0312L19.2708 30.2083H4.84376ZM19.4271 45.0521C16.2674 44.2187 13.4549 42.691 10.9896 40.4687C8.52432 38.2465 6.73612 35.6076 5.62501 32.5521H26.6146L19.4271 45.0521ZM25 45.8333C24.4792 45.8333 23.9493 45.7986 23.4104 45.7292C22.8715 45.6597 22.3597 45.5903 21.875 45.5208L32.4479 27.3437L39.5833 39.8437C37.7083 41.684 35.5299 43.1424 33.0479 44.2187C30.566 45.2951 27.8833 45.8333 25 45.8333ZM41.25 37.9687L30.7292 19.7917H45.1563C45.3646 20.625 45.5299 21.4757 45.6521 22.3437C45.7743 23.2118 45.8347 24.0972 45.8333 25C45.8333 27.4305 45.4083 29.7569 44.5583 31.9792C43.7083 34.2014 42.6056 36.1979 41.25 37.9687Z" fill="white"/>
</svg>
